<svg version="1.1" viewBox="0 0 1024 1024" xmlns="http://www.w3.org/2000/svg">
 <path d="m48 0a48.005 48.005 0 00-48 48v928a48.005 48.005 0 0048 48h928a48.005 48.005 0 0048-48v-928a48.005 48.005 0 00-48-48h-928zm48 96h832v832h-832v-832zm638.73 82.824a48 48 0 00-46.131 26.768l-238.03 485.35-115.71-221.9a48 48 0 00-64.754-20.369 48 48 0 00-20.369 64.754l159.58 306.04a48.005 48.005 0 0085.658-1.0566l279.81-570.55a48 48 0 00-21.961-64.232 48 48 0 00-18.102-4.8066z" style="-inkscape-stroke:none;color:#000000;fill:#000000;stroke-linecap:round;stroke-linejoin:round"/>
</svg>
