<svg version="1.1" viewBox="0 0 1024 1024" xmlns="http://www.w3.org/2000/svg">
 <path transform="matrix(.54522 -.96315 .96053 .546 198.59 97.356)" d="m183.42 222.18c-55.649-98.166-147.95-170.27-256.52-200.39-58.933-16.349-120.05-19.481-179.29-10.157l-11.171-68.778-185.53 151.45 223.92 84.946-13.296-81.863c47.03-7.3571 95.538-4.8509 142.34 8.1334 86.427 23.976 159.83 81.315 204.13 159.46 44.297 78.141 55.818 170.61 32.036 257.14-3.6444 13.261-8.1554 26.17-13.327 38.752l80.207 33.146c6.5008-15.813 12.171-32.036 16.75-48.699 29.876-108.71 15.39-224.98-40.259-323.15zm-106.17 547.16-223.92-84.946 13.277 81.735c-46.931 7.2962-95.324 4.7791-142.02-8.176-86.427-23.976-159.83-81.319-204.13-159.46-44.297-78.141-55.817-170.61-32.036-257.14 3.644-13.259 8.1549-26.167 13.325-38.748l-80.207-33.146c-6.5001 15.812-12.17 32.033-16.749 48.694-29.876 108.71-15.39 224.98 40.259 323.14 55.649 98.166 147.95 170.27 256.52 200.39 58.826 16.319 119.83 19.463 178.97 10.201l11.192 68.904 185.53-151.45z" style="stroke-linecap:round;stroke-linejoin:round;stroke-width:86.814"/>
</svg>
