<svg version="1.1" viewBox="0 0 1024 1024" xmlns="http://www.w3.org/2000/svg">
 <path d="m512 0c-135.77 0-266.03 53.956-362.04 149.96-96.005 96.005-149.96 226.27-149.96 362.04s53.956 266.03 149.96 362.04c96.005 96.005 226.27 149.96 362.04 149.96s266.03-53.956 362.04-149.96c96.005-96.005 149.96-226.27 149.96-362.04s-53.956-266.03-149.96-362.04c-96.005-96.005-226.27-149.96-362.04-149.96zm0 96c110.35 0 216.13 43.816 294.16 121.84s121.84 183.81 121.84 294.16-43.816 216.13-121.84 294.16-183.81 121.84-294.16 121.84-216.13-43.816-294.16-121.84-121.84-183.81-121.84-294.16 43.816-216.13 121.84-294.16 183.81-121.84 294.16-121.84zm0 226a190 190 0 00-190 190 190 190 0 00190 190 190 190 0 00190-190 190 190 0 00-190-190z" style="-inkscape-stroke:none;color:#000000;fill:#000000;stroke-linecap:round;stroke-linejoin:round"/>
</svg>
