<svg version="1.1" viewBox="0 0 1024 1024" xmlns="http://www.w3.org/2000/svg">
 <path d="m48 0a48 48 0 00-33.941 14.059 48 48 0 000 67.883l430.06 430.06-430.06 430.06a48 48 0 000 67.883 48 48 0 0067.883 0l430.06-430.06 430.06 430.06a48 48 0 0067.883 0 48 48 0 000-67.883l-430.06-430.06 430.06-430.06a48 48 0 000-67.883 48 48 0 00-33.941-14.059 48 48 0 00-33.941 14.059l-430.06 430.06-430.06-430.06a48 48 0 00-33.941-14.059z" style="-inkscape-stroke:none;color:#000000;fill:#000000;stroke-linecap:round"/>
</svg>
