<svg version="1.1" viewBox="0 0 1024 1024" xmlns="http://www.w3.org/2000/svg">
 <path d="m461.58 63.542a31.156 61.945 0 01-31.156 61.945 31.156 61.945 0 01-31.156-61.945 31.156 61.945 0 0131.156-61.945 31.156 61.945 0 0131.156 61.945zm-83.017 438.7-64.322 6.4138h-6.8428q-15.054 0-24.634-7.0551-8.8956-7.6965-8.8956-19.241 0-13.469 7.527-19.883 8.2113-6.4138 32.161-8.9793l66.375-6.4138q3.4214-46.179 6.8427-118.65 5.4742-140.46 39.688-140.46 13.001 0 21.897 10.903 8.8956 10.262 8.8956 26.296 0 3.2069-2.0528 23.731-10.264 96.848-14.37 194.34l238.13-22.448h6.8427q15.054 0 24.634 7.6965 10.264 7.0551 10.264 18.6 0 13.469-8.8956 19.883-8.2113 6.4138-30.792 8.9793l-241.55 22.448q-2.0528 41.689-3.4214 79.531-.68392 37.841-.68392 71.193 0 157.14 11.633 232.82 12.317 75.682 36.951 75.682 13.686 0 52.689-19.241 39.688-19.241 94.43-52.593 20.528-12.828 51.321-33.993 34.898-25.014 45.846-25.014 9.5798 0 15.738 6.4138 6.1585 5.7724 6.1585 15.393 0 14.752-19.844 33.352-19.844 18.6-71.165 51.31-69.796 43.614-121.12 66.703-50.636 22.448-78.007 22.448-44.478 0-65.006-87.869-20.528-88.51-20.528-286.7 0-28.221 1.3685-64.779 1.3686-37.2 2.7371-80.813z" style="stroke-linecap:round;stroke-linejoin:round;stroke-width:96"/>
</svg>
